# xmcd CD database file
#
# Track frame offsets:
#	151
#	14143
#	31933
#	51157
#	65858
#	79060
#	99257
#	113549
#	130176
#	149109
#
# Disc length: 2352 seconds
#
# Revision: 0
# Processed by: cddbd v1.5.2PL0 Copyright (c) Steve Scherf et al.
# Submitted via: CDex 1.51
#
DISCID=8c092e0a
DTITLE=Putumayo Sampler - Women of Jazz
DYEAR=2008
DGENRE=Jazz
TTITLE0=Good nite (Melody Cardot)
TTITLE1=Dance me to the End of Love (Madeleine Peyroux)
TTITLE2=Lover Come Back to Me (Cassandra Wilson)
TTITLE3=Lonely in New York (Sophie Milman)
TTITLE4=I´ll be Satisfied (Hope Waits)
TTITLE5=Mean to Me (Kate Paradise)
TTITLE6=Lover Man (Jennifer Hartswick)
TTITLE7=Shall We Dance? (Stacey Kent)
TTITLE8=It Could Happen To You (Della Griffin)
TTITLE9=Since I Fell for You (Etta Jones)
EXTD=YEAR: 2008
EXTT0=
EXTT1=
EXTT2=
EXTT3=
EXTT4=
EXTT5=
EXTT6=
EXTT7=
EXTT8=
EXTT9=
PLAYORDER=
